<?xml version="1.0" encoding="utf-8"?>
<!-- Generator: Adobe Illustrator 24.3.0, SVG Export Plug-In . SVG Version: 6.00 Build 0)  -->
<svg version="1.1" id="Laag_1" xmlns="http://www.w3.org/2000/svg" xmlns:xlink="http://www.w3.org/1999/xlink" x="0px" y="0px"
	 viewBox="0 0 580.1 307.2" style="enable-background:new 0 0 580.1 307.2;" xml:space="preserve">
<style type="text/css">
	.st0{fill:#1E1E1C;}
	.st1{fill:#1EACE4;}
</style>
<g>
	<g>
		<g>
			<path class="st0" d="M94.1,293h-5.3v-4h-0.1c-1,1.5-2.4,2.6-4.2,3.5c-1.8,0.8-3.6,1.2-5.5,1.2c-2.2,0-4.1-0.4-5.9-1.1
				c-1.7-0.7-3.2-1.8-4.5-3.1c-1.2-1.3-2.2-2.9-2.9-4.6c-0.7-1.8-1-3.7-1-5.8c0-2.1,0.3-4,1-5.8s1.6-3.3,2.9-4.6s2.7-2.3,4.5-3.1
				c1.7-0.7,3.7-1.1,5.9-1.1c2,0,3.9,0.4,5.6,1.3c1.8,0.8,3.1,2,4.1,3.4h0.1v-20.6h5.3L94.1,293L94.1,293z M79.7,288.8
				c1.4,0,2.7-0.2,3.8-0.7s2.1-1.2,2.9-2c0.8-0.8,1.4-1.9,1.8-3.1c0.4-1.2,0.6-2.5,0.6-3.9s-0.2-2.7-0.6-3.9c-0.4-1.2-1-2.2-1.8-3.1
				c-0.8-0.8-1.7-1.5-2.9-2c-1.1-0.5-2.4-0.7-3.8-0.7c-1.4,0-2.7,0.2-3.8,0.7s-2.1,1.2-2.9,2c-0.8,0.8-1.4,1.9-1.8,3.1
				c-0.4,1.2-0.6,2.5-0.6,3.9s0.2,2.7,0.6,3.9c0.4,1.2,1,2.2,1.8,3.1c0.8,0.8,1.7,1.5,2.9,2C77,288.6,78.3,288.8,79.7,288.8z"/>
			<path class="st0" d="M104.3,255.2c0-1.1,0.4-2,1.1-2.7c0.8-0.8,1.7-1.1,2.7-1.1s2,0.4,2.7,1.1c0.8,0.8,1.1,1.7,1.1,2.7
				s-0.4,2-1.1,2.7c-0.8,0.8-1.7,1.1-2.7,1.1s-2-0.4-2.7-1.1C104.6,257.1,104.3,256.2,104.3,255.2z M105.5,265.2h5.3V293h-5.3V265.2
				z"/>
			<path class="st0" d="M150.1,292.8c0,2.1-0.4,4-1.1,5.8c-0.7,1.7-1.8,3.3-3.1,4.5c-1.3,1.3-2.9,2.3-4.8,3c-1.9,0.7-4,1.1-6.2,1.1
				c-2.7,0-5.1-0.4-7.3-1.1c-2.2-0.7-4.3-2-6.3-3.9l3.6-4.5c1.4,1.5,2.9,2.6,4.5,3.4c1.6,0.8,3.4,1.1,5.5,1.1c2,0,3.6-0.3,4.9-0.9
				s2.3-1.3,3.1-2.2c0.8-0.9,1.3-1.9,1.6-3.1c0.3-1.2,0.5-2.3,0.5-3.5v-4.1h-0.2c-1,1.7-2.4,2.9-4.1,3.7c-1.7,0.8-3.6,1.2-5.5,1.2
				c-2,0-3.9-0.4-5.7-1.1c-1.7-0.7-3.2-1.7-4.5-3s-2.2-2.8-2.9-4.5s-1.1-3.6-1.1-5.7c0-2,0.3-3.9,1-5.7c0.7-1.8,1.6-3.3,2.9-4.7
				c1.2-1.3,2.7-2.4,4.5-3.1c1.7-0.7,3.7-1.1,5.9-1.1c1.9,0,3.7,0.4,5.5,1.2c1.8,0.8,3.2,2,4.2,3.5h0.1v-4h5.3v27.7L150.1,292.8
				L150.1,292.8z M135.6,269.4c-1.4,0-2.7,0.2-3.8,0.7s-2.1,1.2-2.9,2s-1.4,1.9-1.8,3.1c-0.4,1.2-0.6,2.5-0.6,3.9
				c0,2.8,0.8,5.1,2.5,6.8c1.7,1.7,3.9,2.6,6.7,2.6c2.8,0,5.1-0.9,6.7-2.6c1.6-1.7,2.5-4,2.5-6.8c0-1.4-0.2-2.7-0.6-3.9
				c-0.4-1.2-1-2.2-1.8-3.1c-0.8-0.8-1.7-1.5-2.9-2C138.3,269.6,137,269.4,135.6,269.4z"/>
			<path class="st0" d="M160.2,255.2c0-1.1,0.4-2,1.1-2.7c0.8-0.8,1.7-1.1,2.7-1.1s2,0.4,2.7,1.1c0.8,0.8,1.1,1.7,1.1,2.7
				s-0.4,2-1.1,2.7c-0.8,0.8-1.7,1.1-2.7,1.1s-2-0.4-2.7-1.1C160.6,257.1,160.2,256.2,160.2,255.2z M161.4,265.2h5.3V293h-5.3V265.2
				z"/>
			<path class="st0" d="M193,269.8h-7.6v12.6c0,0.8,0,1.6,0.1,2.3c0,0.8,0.2,1.5,0.4,2.1c0.3,0.6,0.6,1.1,1.2,1.5
				c0.5,0.4,1.3,0.6,2.3,0.6c0.6,0,1.3-0.1,1.9-0.2c0.7-0.1,1.3-0.3,1.8-0.6v4.8c-0.6,0.4-1.4,0.6-2.4,0.7s-1.8,0.2-2.3,0.2
				c-2,0-3.6-0.3-4.7-0.9c-1.1-0.6-1.9-1.3-2.5-2.2c-0.5-0.9-0.8-1.9-0.9-3c-0.1-1.1-0.1-2.2-0.1-3.4v-14.5h-6.1v-4.6h6.1v-7.8h5.3
				v7.8h7.6L193,269.8L193,269.8z"/>
			<path class="st0" d="M202.9,268.6c1.5-1.4,3.2-2.4,5.2-3.1s3.9-1,5.9-1s3.8,0.3,5.3,0.8s2.7,1.2,3.6,2.1s1.6,1.9,2.1,3
				s0.7,2.3,0.7,3.5V288c0,1,0,1.9,0.1,2.7c0,0.8,0.1,1.6,0.2,2.4h-4.7c-0.1-1.4-0.2-2.8-0.2-4.2H221c-1.2,1.8-2.6,3.1-4.2,3.8
				c-1.6,0.7-3.5,1.1-5.6,1.1c-1.3,0-2.5-0.2-3.7-0.5c-1.2-0.4-2.2-0.9-3.1-1.6s-1.6-1.6-2.1-2.6s-0.8-2.2-0.8-3.6
				c0-1.8,0.4-3.3,1.2-4.5c0.8-1.2,1.9-2.2,3.3-3s3-1.3,4.9-1.6c1.9-0.3,3.9-0.5,6-0.5h3.9v-1.2c0-0.7-0.1-1.4-0.4-2.1
				s-0.7-1.3-1.2-1.9s-1.2-1-2.1-1.4s-1.8-0.5-2.9-0.5c-1,0-1.9,0.1-2.7,0.3s-1.5,0.4-2.1,0.7c-0.6,0.3-1.2,0.6-1.7,1
				s-1,0.8-1.5,1.1L202.9,268.6z M217.8,279.6c-1.3,0-2.5,0.1-3.9,0.2c-1.3,0.1-2.5,0.4-3.6,0.8s-2,0.9-2.6,1.6
				c-0.7,0.7-1,1.6-1,2.7c0,1.6,0.5,2.8,1.6,3.5s2.5,1.1,4.4,1.1c1.4,0,2.7-0.2,3.7-0.7s1.8-1.1,2.5-1.9c0.6-0.8,1.1-1.7,1.4-2.6
				c0.3-1,0.4-1.9,0.4-2.9v-1.8L217.8,279.6L217.8,279.6z"/>
			<path class="st0" d="M236.6,248.6h5.3V293h-5.3V248.6z"/>
			<path class="st0" d="M287.4,272.2c-0.6-0.8-1.4-1.4-2.3-2c-0.9-0.5-2-0.8-3.4-0.8c-1.3,0-2.3,0.3-3.3,0.8
				c-0.9,0.5-1.4,1.3-1.4,2.3c0,0.8,0.3,1.5,0.8,2s1.2,0.9,1.9,1.2c0.7,0.3,1.5,0.5,2.3,0.7s1.5,0.3,2.1,0.4c1.1,0.3,2.2,0.6,3.2,1
				s1.9,0.9,2.6,1.5s1.3,1.4,1.7,2.3c0.4,0.9,0.6,2,0.6,3.3c0,1.6-0.3,2.9-1,4s-1.5,2-2.6,2.7s-2.3,1.2-3.6,1.5
				c-1.4,0.3-2.7,0.5-4.1,0.5c-2.3,0-4.3-0.4-6.1-1.1c-1.7-0.7-3.3-2-4.7-3.9l4-3.3c0.9,0.9,1.8,1.6,2.9,2.3c1.1,0.7,2.4,1,3.9,1
				c0.7,0,1.3-0.1,2-0.2s1.3-0.4,1.8-0.6s1-0.7,1.3-1.1c0.3-0.5,0.5-1,0.5-1.6c0-0.8-0.2-1.4-0.7-1.9s-1.1-0.9-1.8-1.2
				c-0.7-0.3-1.4-0.5-2.2-0.7c-0.8-0.2-1.4-0.3-2-0.4c-1.1-0.3-2.2-0.6-3.2-0.9c-1-0.4-1.9-0.8-2.7-1.4c-0.8-0.6-1.4-1.3-1.9-2.2
				c-0.5-0.9-0.7-2-0.7-3.4c0-1.5,0.3-2.7,0.9-3.8c0.6-1.1,1.4-2,2.4-2.7s2.1-1.2,3.4-1.6s2.6-0.5,3.9-0.5c1.9,0,3.7,0.4,5.4,1.1
				c1.7,0.7,3.1,1.9,4.1,3.5L287.4,272.2z"/>
			<path class="st0" d="M316.5,269.8h-7.6v12.6c0,0.8,0,1.6,0.1,2.3c0,0.8,0.2,1.5,0.4,2.1c0.3,0.6,0.6,1.1,1.2,1.5
				c0.5,0.4,1.3,0.6,2.3,0.6c0.6,0,1.3-0.1,1.9-0.2c0.7-0.1,1.3-0.3,1.8-0.6v4.8c-0.6,0.4-1.4,0.6-2.4,0.7s-1.8,0.2-2.3,0.2
				c-2,0-3.6-0.3-4.7-0.9s-1.9-1.3-2.5-2.2c-0.5-0.9-0.8-1.9-0.9-3s-0.1-2.2-0.1-3.4v-14.5h-6.1v-4.6h6.1v-7.8h5.3v7.8h7.6
				L316.5,269.8L316.5,269.8z"/>
			<path class="st0" d="M326.4,268.6c1.5-1.4,3.2-2.4,5.2-3.1s3.9-1,5.9-1s3.8,0.3,5.3,0.8s2.7,1.2,3.6,2.1s1.6,1.9,2.1,3
				s0.7,2.3,0.7,3.5V288c0,1,0,1.9,0.1,2.7s0.1,1.6,0.2,2.4h-4.7c-0.1-1.4-0.2-2.8-0.2-4.2h-0.1c-1.2,1.8-2.6,3.1-4.2,3.8
				c-1.6,0.7-3.5,1.1-5.6,1.1c-1.3,0-2.5-0.2-3.7-0.5c-1.2-0.4-2.2-0.9-3.1-1.6s-1.6-1.6-2.1-2.6s-0.8-2.2-0.8-3.6
				c0-1.8,0.4-3.3,1.2-4.5c0.8-1.2,1.9-2.2,3.3-3s3-1.3,4.9-1.6c1.9-0.3,3.9-0.5,6-0.5h3.9v-1.2c0-0.7-0.1-1.4-0.4-2.1
				s-0.7-1.3-1.2-1.9s-1.2-1-2.1-1.4s-1.8-0.5-2.9-0.5c-1,0-1.9,0.1-2.7,0.3c-0.8,0.2-1.5,0.4-2.1,0.7c-0.6,0.3-1.2,0.6-1.7,1
				s-1,0.8-1.5,1.1L326.4,268.6z M341.3,279.6c-1.3,0-2.5,0.1-3.9,0.2c-1.3,0.1-2.5,0.4-3.6,0.8s-2,0.9-2.6,1.6s-1,1.6-1,2.7
				c0,1.6,0.5,2.8,1.6,3.5s2.5,1.1,4.4,1.1c1.4,0,2.7-0.2,3.7-0.7s1.8-1.1,2.5-1.9c0.6-0.8,1.1-1.7,1.4-2.6c0.3-1,0.4-1.9,0.4-2.9
				v-1.8L341.3,279.6L341.3,279.6z"/>
			<path class="st0" d="M359.7,265.2h5.3v4.3h0.1c0.7-1.5,1.8-2.7,3.5-3.6c1.6-0.9,3.5-1.4,5.7-1.4c1.3,0,2.6,0.2,3.9,0.6
				c1.2,0.4,2.3,1,3.2,1.9c0.9,0.9,1.7,2,2.2,3.3c0.5,1.4,0.8,3,0.8,4.8V293h-5.3v-16.5c0-1.3-0.2-2.4-0.5-3.3
				c-0.4-0.9-0.8-1.7-1.4-2.2c-0.6-0.6-1.3-1-2-1.2c-0.8-0.3-1.6-0.4-2.4-0.4c-1.1,0-2.1,0.2-3.1,0.5c-0.9,0.4-1.8,0.9-2.5,1.7
				c-0.7,0.8-1.3,1.7-1.6,2.9c-0.4,1.2-0.6,2.6-0.6,4.2V293h-5.3V265.2z"/>
			<path class="st0" d="M423.3,293H418v-4h-0.1c-1,1.5-2.4,2.6-4.2,3.5c-1.8,0.8-3.6,1.2-5.5,1.2c-2.2,0-4.1-0.4-5.9-1.1
				c-1.7-0.7-3.2-1.8-4.5-3.1c-1.2-1.3-2.2-2.9-2.9-4.6c-0.7-1.8-1-3.7-1-5.8c0-2.1,0.3-4,1-5.8s1.6-3.3,2.9-4.6
				c1.2-1.3,2.7-2.3,4.5-3.1c1.7-0.7,3.7-1.1,5.9-1.1c2,0,3.9,0.4,5.6,1.3c1.8,0.8,3.1,2,4.1,3.4h0.1v-20.6h5.3V293z M408.8,288.8
				c1.4,0,2.7-0.2,3.8-0.7c1.1-0.5,2.1-1.2,2.9-2s1.4-1.9,1.8-3.1s0.6-2.5,0.6-3.9s-0.2-2.7-0.6-3.9c-0.4-1.2-1-2.2-1.8-3.1
				c-0.8-0.8-1.7-1.5-2.9-2c-1.1-0.5-2.4-0.7-3.8-0.7s-2.7,0.2-3.8,0.7c-1.1,0.5-2.1,1.2-2.9,2s-1.4,1.9-1.8,3.1s-0.6,2.5-0.6,3.9
				s0.2,2.7,0.6,3.9c0.4,1.2,1,2.2,1.8,3.1s1.7,1.5,2.9,2C406.2,288.6,407.4,288.8,408.8,288.8z"/>
			<path class="st0" d="M434.4,268.6c1.5-1.4,3.2-2.4,5.2-3.1s3.9-1,5.9-1s3.8,0.3,5.3,0.8s2.7,1.2,3.6,2.1c0.9,0.9,1.6,1.9,2.1,3
				s0.7,2.3,0.7,3.5V288c0,1,0,1.9,0.1,2.7s0.1,1.6,0.2,2.4h-4.7c-0.1-1.4-0.2-2.8-0.2-4.2h-0.1c-1.2,1.8-2.6,3.1-4.2,3.8
				c-1.6,0.7-3.5,1.1-5.6,1.1c-1.3,0-2.5-0.2-3.7-0.5c-1.2-0.4-2.2-0.9-3.1-1.6s-1.6-1.6-2.1-2.6s-0.8-2.2-0.8-3.6
				c0-1.8,0.4-3.3,1.2-4.5c0.8-1.2,1.9-2.2,3.3-3s3-1.3,4.9-1.6c1.9-0.3,3.9-0.5,6-0.5h3.9v-1.2c0-0.7-0.1-1.4-0.4-2.1
				c-0.3-0.7-0.7-1.3-1.2-1.9s-1.2-1-2.1-1.4s-1.8-0.5-2.9-0.5c-1,0-1.9,0.1-2.7,0.3c-0.8,0.2-1.5,0.4-2.1,0.7
				c-0.6,0.3-1.2,0.6-1.7,1s-1,0.8-1.5,1.1L434.4,268.6z M449.3,279.6c-1.3,0-2.5,0.1-3.9,0.2c-1.3,0.1-2.5,0.4-3.6,0.8
				s-2,0.9-2.6,1.6s-1,1.6-1,2.7c0,1.6,0.5,2.8,1.6,3.5s2.5,1.1,4.4,1.1c1.4,0,2.7-0.2,3.7-0.7c1-0.5,1.8-1.1,2.5-1.9
				c0.6-0.8,1.1-1.7,1.4-2.6c0.3-1,0.4-1.9,0.4-2.9v-1.8L449.3,279.6L449.3,279.6z"/>
			<path class="st0" d="M467.7,265.2h5.3v4.3h0.1c0.4-0.7,0.8-1.4,1.4-2c0.6-0.6,1.2-1.1,2-1.6s1.5-0.8,2.4-1
				c0.9-0.3,1.7-0.4,2.6-0.4s1.6,0.1,2.4,0.4l-0.2,5.7c-0.4-0.1-0.9-0.2-1.3-0.3c-0.4-0.1-0.9-0.1-1.3-0.1c-2.6,0-4.6,0.7-5.9,2.2
				s-2.1,3.7-2.1,6.8v14h-5.4V265.2z"/>
			<path class="st0" d="M519.3,293H514v-4h-0.1c-1,1.5-2.4,2.6-4.2,3.5c-1.8,0.8-3.6,1.2-5.5,1.2c-2.2,0-4.1-0.4-5.9-1.1
				c-1.7-0.7-3.2-1.8-4.5-3.1c-1.2-1.3-2.2-2.9-2.9-4.6c-0.7-1.8-1-3.7-1-5.8c0-2.1,0.3-4,1-5.8s1.6-3.3,2.9-4.6
				c1.2-1.3,2.7-2.3,4.5-3.1c1.7-0.7,3.7-1.1,5.9-1.1c2,0,3.9,0.4,5.6,1.3c1.8,0.8,3.1,2,4.1,3.4h0.1v-20.6h5.3L519.3,293L519.3,293
				z M504.8,288.8c1.4,0,2.7-0.2,3.8-0.7s2.1-1.2,2.9-2c0.8-0.8,1.4-1.9,1.8-3.1c0.4-1.2,0.6-2.5,0.6-3.9s-0.2-2.7-0.6-3.9
				c-0.4-1.2-1-2.2-1.8-3.1c-0.8-0.8-1.7-1.5-2.9-2c-1.1-0.5-2.4-0.7-3.8-0.7s-2.7,0.2-3.8,0.7s-2.1,1.2-2.9,2
				c-0.8,0.8-1.4,1.9-1.8,3.1c-0.4,1.2-0.6,2.5-0.6,3.9s0.2,2.7,0.6,3.9c0.4,1.2,1,2.2,1.8,3.1s1.7,1.5,2.9,2
				C502.1,288.6,503.4,288.8,504.8,288.8z"/>
		</g>
	</g>
</g>
<g>
	<path class="st1" d="M86.4,219.7C38.8,219.7,0,180.9,0,133.3c0-47.9,38.9-86.8,86.8-86.8v46.1c-22.5,0-40.7,18.3-40.7,40.7
		c0,22.2,18.1,40.3,40.3,40.3c22.5,0,40.7-18.3,40.7-40.7V0h46.1v132.9C173.2,180.7,134.2,219.7,86.4,219.7z"/>
</g>
<g>
	<path class="st1" d="M379.3,46.5L379.3,46.5L379.3,46.5L379.3,46.5z"/>
	<path class="st1" d="M379.4,219.7L379.4,219.7c-0.1,0-0.1,0-0.2,0C379.3,219.6,379.4,219.7,379.4,219.7z"/>
</g>
<g>
	<path class="st1" d="M213.3,46.6v42.5l0,0v130.5c27.4-14.6,46-43.5,46-76.6V46.5h-46V46.6z"/>
</g>
<g>
	<path class="st1" d="M379,219.7c-47.6,0-86.4-38.8-86.4-86.4c0-47.9,38.9-86.8,86.8-86.8v46.1c-22.5,0-40.7,18.3-40.7,40.7
		c0,22.2,18.1,40.3,40.3,40.3V219.7z"/>
</g>
<path class="st1" d="M493.4,46.4c-47.9,0-86.7,38.8-86.7,86.7s38.8,86.7,86.7,86.7s86.7-38.8,86.7-86.7S541.3,46.4,493.4,46.4z
	 M493.4,173.4c-22.2,0-40.2-18-40.2-40.2s18-40.2,40.2-40.2s40.2,18,40.2,40.2S515.6,173.4,493.4,173.4z"/>
</svg>
